<?xml version="1.0" encoding="UTF-8" standalone="no"?>
<svg
   xmlns:dc="http://purl.org/dc/elements/1.1/"
   xmlns:cc="http://creativecommons.org/ns#"
   xmlns:rdf="http://www.w3.org/1999/02/22-rdf-syntax-ns#"
   xmlns:svg="http://www.w3.org/2000/svg"
   xmlns="http://www.w3.org/2000/svg"
   xmlns:sodipodi="http://sodipodi.sourceforge.net/DTD/sodipodi-0.dtd"
   xmlns:inkscape="http://www.inkscape.org/namespaces/inkscape"
   viewBox="0 0 512 512"
   style="height: 512px; width: 512px;"
   id="svg2"
   version="1.1"
   inkscape:version="0.48.2 r9819"
   width="100%"
   height="100%"
   sodipodi:docname="ammonite.svg">
  <metadata
     id="metadata14">
    <rdf:RDF>
      <cc:Work
         rdf:about="">
        <dc:format>image/svg+xml</dc:format>
        <dc:type
           rdf:resource="http://purl.org/dc/dcmitype/StillImage" />
      </cc:Work>
    </rdf:RDF>
  </metadata>
  <defs
     id="defs12" />
  <sodipodi:namedview
     pagecolor="#ffffff"
     bordercolor="#666666"
     borderopacity="1"
     objecttolerance="10"
     gridtolerance="10"
     guidetolerance="10"
     inkscape:pageopacity="0"
     inkscape:pageshadow="2"
     inkscape:window-width="640"
     inkscape:window-height="480"
     id="namedview10"
     showgrid="false"
     inkscape:zoom="1.436138"
     inkscape:cx="354.70407"
     inkscape:cy="227.18208"
     inkscape:window-x="0"
     inkscape:window-y="0"
     inkscape:window-maximized="0"
     inkscape:current-layer="svg2" />
  <path
     style="fill:#ffffff"
     inkscape:connector-curvature="0"
     id="path8"
     d="m 203.656,18.594 c -20.42,0.244 -40.646,3.69 -59.78,10 l 18.655,44.062 -17.186,7.313 -18.906,-44.69 c -20.745,9.09 -39.768,21.67 -55.813,37.314 l 28.563,27 L 86.376,113.187 57.97,86.374 c -12.95,15.674 -23.174,33.727 -29.72,53.813 l 38.188,7.156 -3.47,18.375 -39.5,-7.407 c -0.324,1.597 -0.625,3.193 -0.905,4.812 -3.637,21.03 -2.63,42.506 2.406,62.78 l 37.56,-11.624 5.532,17.845 -37.468,11.625 c 8.693,22.822 22.683,43.34 41,58.938 l 19.625,-27.282 15.155,10.906 -19.72,27.47 c 13.604,8.55 28.99,14.62 45.876,17.468 2.268,0.382 4.538,0.696 6.814,0.938 l 0.937,-32.063 18.69,0.53 -0.94,31.97 c 17.806,-1.012 35.196,-6.088 50.47,-14.594 L 192.22,293 l 15.686,-10.22 16.125,24.814 c 18.458,-14.83 31.852,-35.59 35.876,-60.656 1.294,-8.06 1.4,-16.225 0.438,-24.22 l -26.313,6.063 -4.218,-18.218 26.344,-6.062 c -6.05,-17.766 -17.544,-33.373 -33.187,-43.156 L 212.376,183.939 195.47,176 205.938,153.625 c -3.064,-0.92 -6.238,-1.65 -9.5,-2.156 -15.263,-2.37 -31.01,1.074 -43.72,8.905 L 163.844,176.312 148.5,187 138.437,172.594 c -5.965,7.145 -10.122,15.83 -11.562,25.687 -3.282,22.473 10.78,46.49 33.5,49.657 15.417,2.15 31.817,-7.57 33.813,-23.03 l 18.53,2.374 c -3.468,26.873 -30.073,42.623 -54.937,39.157 -34.097,-4.755 -54.066,-38.93 -49.405,-70.843 6.343,-43.43 50.054,-68.933 90.906,-62.594 53.438,8.29 85.36,61.194 79.626,112.063 7.897,7.11 19.648,11.173 33.813,12.093 15.244,0.99 32.824,-1.718 49.186,-7 16.362,-5.28 31.51,-13.155 41.97,-21.78 10.22,-8.43 15.18,-17.07 15.312,-23.814 -2.385,-11.957 -5.697,-23.664 -9.844,-35.03 L 353.594,197 345.344,180.22 402.25,152.188 C 390.26,125.874 373.613,101.915 353.344,81.75 L 311,124.97 297.656,111.875 339.594,69.125 C 316.53,49.635 289.66,34.805 260.124,26.345 L 247.25,80.468 229.062,76.154 241.97,22 c -0.66,-0.125 -1.31,-0.256 -1.97,-0.375 -12.072,-2.175 -24.235,-3.176 -36.344,-3.03 z m 222.313,214.28 c -3.027,3.504 -6.472,6.816 -10.22,9.907 -12.892,10.633 -29.816,19.29 -48.094,25.19 -18.278,5.9 -37.87,9.03 -56.156,7.842 -9.14,-0.593 -18.04,-2.324 -26.188,-5.468 -0.113,-0.044 -0.23,-0.08 -0.343,-0.125 -0.053,-0.024 -0.106,-0.04 -0.158,-0.064 -6.717,-2.94 -12.794,-6.868 -19.562,-11.562 -1.823,0.9 -2.88,2.076 -3.844,3.844 -1.453,2.667 -2.35,7.186 -2.062,13 0.392,7.882 2.93,17.736 6.53,27.437 4.83,14.617 13.227,27.775 25.345,39.344 1.522,26.72 -9.796,46.69 -20.658,53.092 -5.828,3.437 -10.71,3.766 -16.28,0.657 -5.57,-3.11 -12.282,-10.913 -17.282,-26.126 l -17.75,5.812 c 5.936,18.06 14.68,30.36 25.906,36.625 11.226,6.268 24.463,5.265 34.875,-0.874 11.48,-6.768 20.51,-18.812 25.564,-34.22 0.91,13.636 -2.12,27.72 -8.22,40.97 -12.467,27.084 -37.9,49.132 -66.687,53.094 l 2.532,18.5 c 36.393,-5.01 66.27,-31.514 81.124,-63.78 8.842,-19.21 12.326,-41.012 8.187,-61.658 3.793,2.017 7.754,3.957 11.908,5.813 6.152,6.78 8.495,13.016 9.218,19.5 1.007,9.028 -1.79,19.49 -5.875,31.406 -4.084,11.92 -9.32,25.09 -11.25,39.814 -1.324,10.114 -0.886,21.056 2.658,32.25 h 19.937 c -4.74,-10.43 -5.356,-19.94 -4.063,-29.813 1.535,-11.71 6.14,-23.74 10.407,-36.186 4.266,-12.447 8.315,-25.486 6.75,-39.53 -0.28,-2.51 -0.778,-5.03 -1.47,-7.533 6.196,1.96 12.703,3.783 19.5,5.47 -0.5,34.702 10.603,70.765 32.656,107.594 h 22.03 c -25.564,-39.2 -37.326,-75.627 -35.998,-110.063 2.185,-2.88 4.265,-5.748 6.25,-8.624 13.3,41.004 45.172,79 88.593,114.563 v -24.533 c -40.333,-35.43 -66.745,-72.087 -74.436,-109.375 7.845,14.14 17.875,24.776 28.875,32.438 14.683,10.23 30.8,15.21 45.56,17.344 v -18.938 c -11.728,-2.008 -23.968,-6.154 -34.874,-13.75 -9.892,-6.89 -18.843,-16.585 -25.625,-30.72 6.152,3.926 12.774,6.638 19.626,8.127 13.45,2.922 27.412,1.564 40.875,-2.438 V 327.5 c -12.877,4.623 -25.824,6.22 -36.905,3.813 -9.384,-2.04 -17.707,-6.62 -24.688,-15.5 6.53,-27.878 4.102,-55.51 -6.218,-82.938 z m -26.44,44.095 c 9.626,0 17.25,7.627 17.25,17.25 0,9.625 -7.623,17.217 -17.25,17.217 -9.625,0 -17.217,-7.592 -17.217,-17.218 0,-9.627 7.592,-17.25 17.218,-17.25 z m -77.686,22.56 c 9.624,0 17.22,7.63 17.22,17.25 -0.002,9.627 -7.594,17.22 -17.22,17.22 -9.626,0 -17.25,-7.593 -17.25,-17.22 0,-9.625 7.624,-17.25 17.25,-17.25 z" />
</svg>
