<?xml version="1.0" encoding="UTF-8" standalone="no"?>
<!-- Created with Inkscape (http://www.inkscape.org/) -->
<svg id="svg2" xmlns:inkscape="http://www.inkscape.org/namespaces/inkscape" xmlns:rdf="http://www.w3.org/1999/02/22-rdf-syntax-ns#" xmlns="http://www.w3.org/2000/svg" sodipodi:docname="townhallb1.svg" viewBox="0 0 200 300" height="300" width="250" version="1.1" xmlns:cc="http://creativecommons.org/ns#" xmlns:dc="http://purl.org/dc/elements/1.1/" inkscape:version="0.91 r13725" xmlns:sodipodi="http://sodipodi.sourceforge.net/DTD/sodipodi-0.dtd">
 <sodipodi:namedview id="base" bordercolor="#666666" inkscape:pageshadow="2" inkscape:window-y="29" pagecolor="#ffffff" inkscape:window-maximized="0" inkscape:zoom="1.3866842" inkscape:window-x="118" inkscape:window-height="837" showgrid="false" borderopacity="1.0" inkscape:current-layer="layer1" inkscape:cx="126.88934" inkscape:cy="96.52023" units="px" inkscape:window-width="1023" inkscape:pageopacity="0.0" inkscape:document-units="px"/>
 <metadata id="metadata7">
  <rdf:RDF>
   <cc:Work rdf:about="">
    <dc:format>image/svg+xml</dc:format>
    <dc:type rdf:resource="http://purl.org/dc/dcmitype/StillImage"/>
    <dc:title/>
   </cc:Work>
  </rdf:RDF>
 </metadata>
 <g id="layer1" inkscape:label="Layer 1" inkscape:groupmode="layer" transform="translate(0,-852.36)">
  <g stroke="#1a1a1a">
   <path id="rect4778" style="color:#000000" d="m-22.204 998.68 45.656 71.162v82.641h-95.828v-82.273z" sodipodi:nodetypes="cccccc" inkscape:connector-curvature="0" transform="scale(-1,1)" class="wall left" fill="#fff"/>
   <path id="rect5780" stroke-linejoin="bevel" style="color-rendering:auto;color:#000000;isolation:auto;mix-blend-mode:normal;shape-rendering:auto;solid-color:#000000;image-rendering:auto" d="m22.485 998.46 50.582 71.69h148.59l-52-71.771z" sodipodi:nodetypes="ccccc" inkscape:connector-curvature="0" class="roof" fill="#f00"/>
   <path id="rect5816" style="color:#000000" d="m72.519 1070.3h149.05v82.22h-149.05z" sodipodi:nodetypes="ccccc" inkscape:connector-curvature="0" fill="#f9f9f9"/>
   <path id="rect5829" stroke-linejoin="bevel" style="color-rendering:auto;color:#000000;isolation:auto;mix-blend-mode:normal;shape-rendering:auto;solid-color:#000000;image-rendering:auto" d="m1.3864 1122.4c-4.75 0-8.5735 4.2311-8.5735 9.4799v21.557h17.147v-21.557c0-5.2488-3.8235-9.4799-8.5735-9.4799z" sodipodi:nodetypes="ssccss" inkscape:connector-curvature="0" stroke-width=".50930"/>
  </g>
  <rect id="rect4171-1" style="color:#000000" height="9.1924" width="10.253" y="1082.1" x="106.36"/>
  <rect id="rect4171-6-6" style="color:#000000" height="9.1924" width="10.253" y="1082.1" x="130.18"/>
  <rect id="rect4171-9" style="color:#000000" height="9.1924" width="10.253" y="1082.1" x="153.99"/>
  <rect id="rect4171-2" style="color:#000000" height="9.1924" width="10.253" y="1082.1" x="177.81"/>
  <rect id="rect4256" style="color:#000000" height="9.1924" width="10.253" y="1082.1" x="82.542"/>
  <g id="g7670" transform="translate(2.8846 1.4423)">
   <path id="rect3336-5" stroke-linejoin="bevel" d="m180.39 1042.9 9.57-11.719 9.57 11.719v18.674h-19.14z" sodipodi:nodetypes="cccccc" inkscape:connector-curvature="0" stroke="#1a1a1a" fill="#fff"/>
   <rect id="rect4171-9-8" style="color:#000000" height="9.1924" width="10.253" y="1044" x="185.1"/>
   <path id="path7555" stroke-linejoin="bevel" d="m179.99 1061.5v-18.029h-14.062z" fill-rule="evenodd" sodipodi:nodetypes="cccc" inkscape:connector-curvature="0" class="wall left" stroke="#000" stroke-width="1px"/>
   <path id="path7557" stroke-linejoin="bevel" d="m165.62 1043.3h14.01l10.096-11.899-24.064-0.1803z" sodipodi:nodetypes="ccccc" inkscape:connector-curvature="0" class="roof left" stroke="#000" stroke-width="1px" fill="none"/>
  </g>
  <rect id="rect4171-2-6" style="color:#000000" height="9.1924" width="10.253" y="1082.1" x="201.63"/>
  <g id="g7682" transform="translate(7.2115 1.4423)">
   <path id="path7654" stroke-linejoin="bevel" d="m127.74 1042.9 9.57-11.719 9.57 11.719v18.674h-19.14z" sodipodi:nodetypes="cccccc" inkscape:connector-curvature="0" stroke="#1a1a1a" fill="#fff"/>
   <rect id="rect7656" style="color:#000000" height="9.1924" width="10.253" y="1044" x="132.46"/>
   <path id="path7658" stroke-linejoin="bevel" d="m127.34 1061.5v-18.029h-14.062z" fill-rule="evenodd" sodipodi:nodetypes="cccc" inkscape:connector-curvature="0" stroke="#000" stroke-width="1px" class="wall left"/>
   <path id="path7660" stroke-linejoin="bevel" d="m112.97 1043.3h14.01l10.096-11.899-24.064-0.1803z" sodipodi:nodetypes="ccccc" inkscape:connector-curvature="0" stroke="#000" stroke-width="1px" class="roof left" fill="none"/>
  </g>
  <g id="g7676" transform="translate(2.8846 1.4423)">
   <path id="path7662" stroke-linejoin="bevel" d="m83.752 1042.9 9.57-11.719 9.57 11.719v18.674h-19.14z" sodipodi:nodetypes="cccccc" inkscape:connector-curvature="0" stroke="#1a1a1a" fill="#fff"/>
   <rect id="rect7664" style="color:#000000" height="9.1924" width="10.253" y="1044" x="88.466"/>
   <path id="path7666" stroke-linejoin="bevel" d="m83.352 1061.5v-18.029h-14.062z" fill-rule="evenodd" sodipodi:nodetypes="cccc" inkscape:connector-curvature="0" class="wall left" stroke="#000" stroke-width="1px"/>
   <path id="path7668" stroke-linejoin="bevel" d="m68.982 1043.3h14.01l10.096-11.899-24.064-0.1803z" sodipodi:nodetypes="ccccc" inkscape:connector-curvature="0" class="roof left" stroke="#000" stroke-width="1px" fill="none"/>
  </g>
  <g id="g7688" transform="translate(-33.894 -30.288)">
   <path id="path7690" stroke-linejoin="bevel" d="m180.39 1042.9 9.57-11.719 9.57 11.719v18.674h-19.14z" sodipodi:nodetypes="cccccc" inkscape:connector-curvature="0" stroke="#1a1a1a" fill="#fff"/>
   <rect id="rect7692" style="color:#000000" height="9.1924" width="10.253" y="1044" x="185.1"/>
   <path id="path7694" stroke-linejoin="bevel" d="m179.99 1061.5v-18.029h-14.062z" fill-rule="evenodd" sodipodi:nodetypes="cccc" inkscape:connector-curvature="0" stroke="#000" stroke-width="1px" class="wall left"/>
   <path id="path7696" stroke-linejoin="bevel" d="m165.62 1043.3h14.01l10.096-11.899-24.064-0.1803z" sodipodi:nodetypes="ccccc" inkscape:connector-curvature="0" stroke="#000" stroke-width="1px" class="roof left" fill="none"/>
  </g>
  <g id="g7698" transform="translate(-29.567 -30.288)">
   <path id="path7700" stroke-linejoin="bevel" d="m127.74 1042.9 9.57-11.719 9.57 11.719v18.674h-19.14z" sodipodi:nodetypes="cccccc" inkscape:connector-curvature="0" stroke="#1a1a1a" fill="#fff"/>
   <rect id="rect7702" style="color:#000000" height="9.1924" width="10.253" y="1044" x="132.46"/>
   <path id="path7704" stroke-linejoin="bevel" d="m127.34 1061.5v-18.029h-14.062z" fill-rule="evenodd" sodipodi:nodetypes="cccc" inkscape:connector-curvature="0" class="wall left" stroke="#000" stroke-width="1px"/>
   <path id="path7706" stroke-linejoin="bevel" d="m112.97 1043.3h14.01l10.096-11.899-24.064-0.1803z" sodipodi:nodetypes="ccccc" inkscape:connector-curvature="0" class="roof left" stroke="#000" stroke-width="1px" fill="none"/>
  </g>
  <rect id="rect7708" style="color:#000000" height="9.1924" width="10.253" y="1118.9" x="106.36"/>
  <rect id="rect7710" style="color:#000000" height="9.1924" width="10.253" y="1118.9" x="130.18"/>
  <rect id="rect7712" style="color:#000000" height="9.1924" width="10.253" y="1118.9" x="153.99"/>
  <rect id="rect7714" style="color:#000000" height="9.1924" width="10.253" y="1118.9" x="177.81"/>
  <rect id="rect7716" style="color:#000000" height="9.1924" width="10.253" y="1118.9" x="82.542"/>
  <rect id="rect7718" style="color:#000000" height="9.1924" width="10.253" y="1118.8" x="201.63"/>
  <rect id="rect7722" style="color:#000000" height="9.1924" width="10.253" y="1118.9" x="30.658"/>
  <rect id="rect7724" style="color:#000000" height="9.1924" width="10.253" y="1118.9" x="54.475"/>
  <rect id="rect7728" style="color:#000000" height="9.1924" width="10.253" y="1081.4" x="6.8408"/>
  <rect id="rect7730" style="color:#000000" height="9.1924" width="10.253" y="1081.4" x="30.658"/>
  <rect id="rect7732" style="color:#000000" height="9.1924" width="10.253" y="1081.4" x="54.475"/>
  <rect id="rect7734" style="color:#000000" height="9.1924" width="10.253" y="1081.4" x="-16.976"/>
  <rect id="rect7736" style="color:#000000" height="9.1924" width="10.253" y="1045.4" x="6.8408"/>
  <rect id="rect7738" style="color:#000000" height="9.1924" width="10.253" y="1045.4" x="30.658"/>
  <rect id="rect7740" style="color:#000000" height="9.1924" width="10.253" y="1018" x="17.658"/>
 </g>
</svg>
