<?xml version="1.0" encoding="UTF-8" standalone="no"?>
<!-- Created with Inkscape (http://www.inkscape.org/) -->
<svg id="svg2" xmlns:inkscape="http://www.inkscape.org/namespaces/inkscape" xmlns:rdf="http://www.w3.org/1999/02/22-rdf-syntax-ns#" xmlns="http://www.w3.org/2000/svg" inkscape:version="0.91 r13725" viewBox="0 0 200 200" height="200" width="100%" version="1.1" xmlns:cc="http://creativecommons.org/ns#" xmlns:dc="http://purl.org/dc/elements/1.1/" sodipodi:docname="wallsectionb1.svg" xmlns:sodipodi="http://sodipodi.sourceforge.net/DTD/sodipodi-0.dtd">
 <sodipodi:namedview id="base" bordercolor="#666666" inkscape:window-width="1038" inkscape:pageshadow="2" inkscape:window-y="145" pagecolor="#ffffff" inkscape:zoom="2.592442" inkscape:window-maximized="0" inkscape:window-x="263" showgrid="false" borderopacity="1.0" inkscape:current-layer="layer1" inkscape:cx="92.795465" inkscape:cy="103.73418" units="px" inkscape:window-height="841" inkscape:pageopacity="0.0" inkscape:document-units="px"/>
 <metadata id="metadata7">
  <rdf:RDF>
   <cc:Work rdf:about="">
    <dc:format>image/svg+xml</dc:format>
    <dc:type rdf:resource="http://purl.org/dc/dcmitype/StillImage"/>
    <dc:title/>
   </cc:Work>
  </rdf:RDF>
 </metadata>
 <g id="layer1" inkscape:label="Layer 1" inkscape:groupmode="layer" transform="translate(0,-852.36)">
  <path id="rect4778-97-8-0" style="color:#000000" d="m34.102 976.3v8.8282 1.1093 66.1h17.316 17.527 17.316 17.943 17.316 27.605 17.316v-67.209-8.8282h-10.09v8.8282h-7.2266v-8.8282h-0.0996-9.9902-0.0996v8.8282h-7.2266v-8.8282h-0.0996-0.0117-9.9785-0.0996-0.0117-0.41601v8.8282h-6.7988v-8.8282h-0.0117-0.0996-0.41601-9.5742-0.0996-0.31641-0.0996v8.8282h-6.8105v-8.8282h-0.0996-0.31641-0.0996-9.5742-0.0996-0.3164-0.0996-0.0117v8.8282h-6.7988v-8.8282h-0.41602-0.11132-9.9902-0.0996v8.8282h-7.2266v-8.8282h-0.0996-9.9902-0.0996v8.8282h-7.2266v-8.8282h-10.09z" inkscape:connector-curvature="0" stroke="#1a1a1a" class="wall right" fill="none"/>
 </g>
</svg>
